<?xml version="1.0" encoding="UTF-8"?>
<svg width="320px" height="320px" viewBox="0 0 320 320" version="1.1" xmlns="http://www.w3.org/2000/svg" xmlns:xlink="http://www.w3.org/1999/xlink">
    <!-- Generator: Sketch 52.6 (67491) - http://www.bohemiancoding.com/sketch -->
    <title>Group</title>
    <desc>Created with Sketch.</desc>
    <defs>
        <linearGradient x1="75.0059623%" y1="6.68972096%" x2="24.9940377%" y2="93.310279%" id="linearGradient-1">
            <stop stop-color="#497CED" offset="0%"></stop>
            <stop stop-color="#0242D3" offset="27%"></stop>
            <stop stop-color="#3C32BE" offset="49%"></stop>
            <stop stop-color="#93278F" offset="100%"></stop>
        </linearGradient>
    </defs>
    <g id="Page-1" stroke="none" stroke-width="1" fill="none" fill-rule="evenodd">
        <g id="Group" fill-rule="nonzero">
            <circle id="Oval" fill="url(#linearGradient-1)" cx="159.733333" cy="159.733333" r="159.733333"></circle>
            <path d="M236.239984,121.200005 C233.764776,119.770942 230.715193,119.770942 228.239985,121.200005 L199.999988,135.120003 C199.526307,122.210047 188.918631,111.991319 175.99999,112.000006 L103.999998,112.000006 C90.7451649,112.000006 80,122.74517 80,136.000003 L80,183.999998 C80,197.254831 90.7451649,207.999996 103.999998,207.999996 L175.99999,207.999996 C188.918631,208.008683 199.526307,197.789954 199.999988,184.879998 L228.479985,199.119997 C229.570435,199.679048 230.77474,199.980124 231.999985,199.999997 C233.497786,200.004803 234.966854,199.589029 236.239984,198.799997 C238.583868,197.335073 240.005515,194.764009 239.999984,191.999997 L239.999984,128.000004 C240.005515,125.235992 238.583868,122.664928 236.239984,121.200005 Z M183.99999,183.999998 C183.99999,188.418276 180.418268,191.999997 175.99999,191.999997 L103.999998,191.999997 C99.58172,191.999997 95.9999984,188.418276 95.9999984,183.999998 L95.9999984,136.000003 C95.9999984,131.581726 99.58172,128.000004 103.999998,128.000004 L175.99999,128.000004 C180.418268,128.000004 183.99999,131.581726 183.99999,136.000003 L183.99999,183.999998 Z M223.999986,179.039999 L199.999988,167.04 L199.999988,152.960001 L223.999986,140.960003 L223.999986,179.039999 Z" id="Shape" fill="#FFFFFF"></path>
        </g>
    </g>
</svg>